<svg width="50" height="50" viewBox="0 0 50 50" fill="none" xmlns="http://www.w3.org/2000/svg">
<path d="M46.725 30.86L42.4075 27.015C41.1575 25.9025 41.1575 24.08 42.4075 22.9675L46.725 19.12C47.975 18.0075 47.6425 16.9725 45.985 16.81L40.26 16.2675C38.605 16.1125 37.71 14.685 38.2825 13.1025L41.32 4.645C41.89 3.0575 41.1925 2.4825 39.7725 3.36L33.02 7.535C32.6853 7.74384 32.3116 7.8822 31.9216 7.94161C31.5316 8.00103 31.1336 7.98026 30.7519 7.88057C30.3702 7.78088 30.0129 7.60437 29.7018 7.36183C29.3907 7.11929 29.1323 6.81582 28.9425 6.47L26.4975 2.105C25.675 0.634999 24.3175 0.629999 23.48 2.085L21.2075 6.035C20.365 7.4975 18.4375 8.1175 16.925 7.425L12.925 5.59C11.405 4.89 10.2425 5.695 10.3325 7.38L10.5475 11.4175C10.64 13.1025 9.395 14.835 7.7875 15.27L3.925 16.305C2.32 16.74 2.025 18.005 3.275 19.1175L7.5925 22.965C8.8425 24.0775 8.8425 25.9 7.5925 27.0125L3.275 30.86C2.025 31.9725 2.355 33.0525 4.0075 33.2525L9.245 33.8875C10.8975 34.0875 11.8175 35.5625 11.29 37.165L8.605 45.31C8.0775 46.9125 8.83 47.5325 10.275 46.6975L16.4325 43.1325C17.1507 42.7341 17.9917 42.6179 18.791 42.8065C19.5904 42.9952 20.2906 43.4751 20.755 44.1525L23.31 48C24.24 49.3975 25.6375 49.3225 26.41 47.83L28.6575 43.4975C29.0317 42.7787 29.6718 42.2345 30.4414 41.9809C31.2111 41.7273 32.0493 41.7844 32.7775 42.14L37.1125 44.3075C38.6075 45.05 39.755 44.2825 39.665 42.6025L39.4475 38.56C39.36 36.875 40.6 35.1475 42.2125 34.7125L46.07 33.6725C47.68 33.2375 47.975 31.9725 46.725 30.86ZM27.5 35H22.5V30H27.5V35ZM27.5 27.5H22.5V15H27.5V27.5Z" fill="url(#paint0_linear_20_12)"/>
<defs>
<linearGradient id="paint0_linear_20_12" x1="24.9998" y1="0.998104" x2="24.9998" y2="49.0007" gradientUnits="userSpaceOnUse">
<stop stop-color="#F34D51"/>
<stop offset="1" stop-color="#9E07BF"/>
</linearGradient>
</defs>
</svg>
