<svg width="75" height="75" viewBox="0 0 75 75" fill="none" xmlns="http://www.w3.org/2000/svg">
<path d="M70.0875 46.29L63.6112 40.5225C61.7362 38.8537 61.7362 36.12 63.6112 34.4512L70.0875 28.68C71.9625 27.0112 71.4637 25.4587 68.9775 25.215L60.39 24.4012C57.9075 24.1687 56.565 22.0275 57.4237 19.6537L61.98 6.96747C62.835 4.58622 61.7887 3.72372 59.6587 5.03997L49.53 11.3025C49.028 11.6157 48.4673 11.8233 47.8823 11.9124C47.2974 12.0015 46.7004 11.9704 46.1278 11.8208C45.5553 11.6713 45.0193 11.4065 44.5526 11.0427C44.086 10.6789 43.6984 10.2237 43.4137 9.70497L39.7462 3.15747C38.5125 0.952474 36.4762 0.944974 35.22 3.12747L31.8112 9.05247C30.5475 11.2462 27.6562 12.1762 25.3875 11.1375L19.3875 8.38497C17.1075 7.33497 15.3637 8.54247 15.4987 11.07L15.8212 17.1262C15.96 19.6537 14.0925 22.2525 11.6812 22.905L5.88747 24.4575C3.47997 25.11 3.03747 27.0075 4.91247 28.6762L11.3887 34.4475C13.2637 36.1162 13.2637 38.85 11.3887 40.5187L4.91247 46.29C3.03747 47.9587 3.53247 49.5787 6.01122 49.8787L13.8675 50.8312C16.3462 51.1312 17.7262 53.3437 16.935 55.7475L12.9075 67.965C12.1162 70.3687 13.245 71.2987 15.4125 70.0462L24.6487 64.6987C25.726 64.1012 26.9875 63.9268 28.1865 64.2098C29.3855 64.4927 30.4359 65.2126 31.1325 66.2287L34.965 72C36.36 74.0962 38.4562 73.9837 39.615 71.745L42.9862 65.2462C43.5475 64.168 44.5077 63.3517 45.6621 62.9714C46.8166 62.591 48.074 62.6766 49.1662 63.21L55.6687 66.4612C57.9112 67.575 59.6325 66.4237 59.4975 63.9037L59.1712 57.84C59.04 55.3125 60.9 52.7212 63.3187 52.0687L69.105 50.5087C71.52 49.8562 71.9625 47.9587 70.0875 46.29ZM41.25 52.5H33.75V45H41.25V52.5ZM41.25 41.25H33.75V22.5H41.25V41.25Z" fill="url(#paint0_linear_21_189)"/>
<defs>
<linearGradient id="paint0_linear_21_189" x1="37.4997" y1="1.49713" x2="37.4997" y2="73.501" gradientUnits="userSpaceOnUse">
<stop stop-color="#F8F8F8"/>
<stop offset="1" stop-color="#EBEBEB"/>
</linearGradient>
</defs>
</svg>
