<svg width="50" height="50" viewBox="0 0 50 50" fill="none" xmlns="http://www.w3.org/2000/svg">
<path fill-rule="evenodd" clip-rule="evenodd" d="M43.75 6.25V43.75H6.25V6.25H43.75ZM39.5833 18.75H10.4167V39.5833H39.5833V18.75ZM18.75 31.25V35.4167H14.5833V31.25H18.75ZM27.0833 31.25V35.4167H22.9167V31.25H27.0833ZM35.4167 31.25V35.4167H31.25V31.25H35.4167ZM18.75 22.9167V27.0833H14.5833V22.9167H18.75ZM27.0833 22.9167V27.0833H22.9167V22.9167H27.0833ZM35.4167 22.9167V27.0833H31.25V22.9167H35.4167ZM39.5833 10.4167H10.4167V14.5833H39.5833V10.4167Z" fill="url(#paint0_linear_20_10)"/>
<defs>
<linearGradient id="paint0_linear_20_10" x1="25" y1="6.25" x2="25" y2="43.75" gradientUnits="userSpaceOnUse">
<stop stop-color="#DA07A6"/>
<stop offset="1" stop-color="#281483"/>
</linearGradient>
</defs>
</svg>
