<svg width="195" height="195" viewBox="0 0 195 195" fill="none" xmlns="http://www.w3.org/2000/svg">
<path d="M97.5 109.972V24.375H162.5V48.75H113.75V138.125C113.748 145.279 111.386 152.233 107.03 157.908C102.674 163.582 96.5669 167.661 89.6563 169.512C82.7457 171.362 75.4177 170.881 68.8086 168.142C62.1995 165.403 56.6787 160.561 53.1023 154.365C49.526 148.169 48.094 140.966 49.0284 133.873C49.9628 126.78 53.2113 120.194 58.2703 115.135C63.3293 110.077 69.9159 106.829 77.0088 105.896C84.1017 104.962 91.3044 106.395 97.5 109.972Z" fill="url(#paint0_linear_20_32)"/>
<defs>
<linearGradient id="paint0_linear_20_32" x1="105.625" y1="24.375" x2="105.625" y2="170.618" gradientUnits="userSpaceOnUse">
<stop stop-color="#EE4F4F"/>
<stop offset="1" stop-color="#CF74B4"/>
</linearGradient>
</defs>
</svg>
