<svg width="62" height="62" viewBox="0 0 62 62" fill="none" xmlns="http://www.w3.org/2000/svg">
<path fill-rule="evenodd" clip-rule="evenodd" d="M34.3214 4.43743C34.3214 3.55653 33.9715 2.71171 33.3486 2.08882C32.7257 1.46594 31.8809 1.116 31 1.116C30.1191 1.116 29.2743 1.46594 28.6514 2.08882C28.0285 2.71171 27.6786 3.55653 27.6786 4.43743V57.5626C27.6786 58.4435 28.0285 59.2883 28.6514 59.9112C29.2743 60.5341 30.1191 60.884 31 60.884C31.8809 60.884 32.7257 60.5341 33.3486 59.9112C33.9715 59.2883 34.3214 58.4435 34.3214 57.5626V4.43743ZM17.7143 11.3371C18.5952 11.3371 19.44 11.6871 20.0629 12.31C20.6858 12.9329 21.0357 13.7777 21.0357 14.6586V47.3503C21.0357 48.2312 20.6858 49.076 20.0629 49.6989C19.44 50.3218 18.5952 50.6717 17.7143 50.6717C16.8334 50.6717 15.9886 50.3218 15.3657 49.6989C14.7428 49.076 14.3929 48.2312 14.3929 47.3503V14.6541C14.3929 13.7732 14.7428 12.9284 15.3657 12.3055C15.9886 11.6826 16.8334 11.3371 17.7143 11.3371ZM4.42857 21.5494C5.30947 21.5494 6.15429 21.8994 6.77718 22.5223C7.40007 23.1451 7.75 23.99 7.75 24.8709V37.1291C7.75 37.5653 7.66409 37.9972 7.49717 38.4002C7.33025 38.8032 7.0856 39.1693 6.77718 39.4777C6.46875 39.7862 6.1026 40.0308 5.69963 40.1977C5.29665 40.3647 4.86475 40.4506 4.42857 40.4506C3.9924 40.4506 3.56049 40.3647 3.15752 40.1977C2.75454 40.0308 2.38839 39.7862 2.07997 39.4777C1.77154 39.1693 1.52689 38.8032 1.35997 38.4002C1.19305 37.9972 1.10714 37.5653 1.10714 37.1291V24.8709C1.10714 23.99 1.45708 23.1451 2.07997 22.5223C2.70286 21.8994 3.54767 21.5494 4.42857 21.5494ZM44.2857 11.3327C45.1666 11.3327 46.0114 11.6826 46.6343 12.3055C47.2572 12.9284 47.6071 13.7732 47.6071 14.6541V47.3459C47.6071 48.2268 47.2572 49.0716 46.6343 49.6945C46.0114 50.3173 45.1666 50.6673 44.2857 50.6673C43.4048 50.6673 42.56 50.3173 41.9371 49.6945C41.3142 49.0716 40.9643 48.2268 40.9643 47.3459V14.6541C40.9643 13.7732 41.3142 12.9284 41.9371 12.3055C42.56 11.6826 43.4048 11.3327 44.2857 11.3327ZM60.8929 24.8709C60.8929 23.99 60.5429 23.1451 59.92 22.5223C59.2971 21.8994 58.4523 21.5494 57.5714 21.5494C56.6905 21.5494 55.8457 21.8994 55.2228 22.5223C54.5999 23.1451 54.25 23.99 54.25 24.8709V37.1291C54.25 38.01 54.5999 38.8549 55.2228 39.4777C55.8457 40.1006 56.6905 40.4506 57.5714 40.4506C58.4523 40.4506 59.2971 40.1006 59.92 39.4777C60.5429 38.8549 60.8929 38.01 60.8929 37.1291V24.8709Z" fill="#C5308F" fill-opacity="0.78"/>
</svg>
